{
	"asset":{
		"generator":"Khronos glTF Blender I/O v3.5.30",
		"version":"2.0"
	},
	"extensionsUsed":[
		"KHR_materials_specular",
		"KHR_materials_ior"
	],
	"scene":0,
	"scenes":[
		{
			"name":"Scene",
			"nodes":[
				0
			]
		}
	],
	"nodes":[
		{
			"mesh":0,
			"name":"Iphone 13 pro",
			"scale":[
				0.04335892200469971,
				0.04335892200469971,
				0.04335892200469971
			],
			"translation":[
				-0.103689044713974,
				3.46738338470459,
				0.8406826257705688
			]
		}
	],
	"materials":[
		{
			"doubleSided":true,
			"name":"Material.001",
			"pbrMetallicRoughness":{
				"baseColorFactor":[
					0,
					0,
					0,
					1
				],
				"metallicFactor":0.14760147035121918,
				"roughnessFactor":0.22693726420402527
			}
		},
		{
			"doubleSided":true,
			"name":"Black",
			"pbrMetallicRoughness":{
				"baseColorFactor":[
					0,
					0,
					0,
					1
				],
				"metallicFactor":0,
				"roughnessFactor":0
			}
		},
		{
			"doubleSided":true,
			"name":"Back",
			"pbrMetallicRoughness":{
				"baseColorFactor":[
					0,
					0,
					0,
					1
				],
				"metallicFactor":0.007380073890089989,
				"roughnessFactor":0.5
			}
		},
		{
			"doubleSided":true,
			"extensions":{
				"KHR_materials_specular":{
					"specularColorFactor":[
						0.9445238039674,
						0.9445238039674,
						0.9445238039674
					]
				},
				"KHR_materials_ior":{
					"ior":1.4500000476837158
				}
			},
			"name":"GOLD",
			"pbrMetallicRoughness":{
				"baseColorFactor":[
					0.010377531871199608,
					0.010377531871199608,
					0.010377531871199608,
					1
				],
				"roughnessFactor":0
			}
		},
		{
			"doubleSided":true,
			"name":"BARRES",
			"pbrMetallicRoughness":{
				"baseColorFactor":[
					0.800000011920929,
					0.800000011920929,
					0.800000011920929,
					1
				],
				"roughnessFactor":0.1945454478263855
			}
		},
		{
			"doubleSided":true,
			"name":"Labber",
			"pbrMetallicRoughness":{
				"baseColorFactor":[
					0.0839901864528656,
					0.0839901864528656,
					0.0839901864528656,
					1
				],
				"metallicFactor":0,
				"roughnessFactor":0.41525423526763916
			}
		},
		{
			"alphaMode":"BLEND",
			"doubleSided":true,
			"name":"GLASS",
			"pbrMetallicRoughness":{
				"baseColorFactor":[
					0,
					0,
					0,
					1
				],
				"baseColorTexture":{
					"index":0
				},
				"metallicFactor":0,
				"roughnessFactor":0
			}
		},
		{
			"doubleSided":true,
			"name":"Lenscover",
			"pbrMetallicRoughness":{
				"baseColorFactor":[
					0.026162827387452126,
					0.026162827387452126,
					0.026162827387452126,
					1
				],
				"metallicFactor":0,
				"roughnessFactor":0.45818182826042175
			}
		},
		{
			"doubleSided":true,
			"name":"CA",
			"pbrMetallicRoughness":{
				"baseColorTexture":{
					"index":1
				},
				"metallicFactor":0,
				"roughnessFactor":0.0793357789516449
			}
		},
		{
			"doubleSided":true,
			"emissiveFactor":[
				1,
				1,
				1
			],
			"emissiveTexture":{
				"index":2
			},
			"name":"Display",
			"pbrMetallicRoughness":{
				"baseColorTexture":{
					"index":3
				},
				"metallicFactor":0,
				"roughnessFactor":0
			}
		},
		{
			"doubleSided":true,
			"name":"Lens.2",
			"pbrMetallicRoughness":{
				"baseColorTexture":{
					"index":4
				},
				"metallicFactor":0,
				"roughnessFactor":0
			}
		},
		{
			"alphaMode":"BLEND",
			"doubleSided":true,
			"name":"GLS",
			"pbrMetallicRoughness":{
				"baseColorFactor":[
					0,
					0,
					0,
					1
				],
				"baseColorTexture":{
					"index":5
				},
				"metallicFactor":0,
				"roughnessFactor":0
			}
		}
	],
	"meshes":[
		{
			"name":"\u7acb\u65b9\u4f53.034",
			"primitives":[
				{
					"attributes":{
						"POSITION":0,
						"TEXCOORD_0":1,
						"TEXCOORD_1":2,
						"NORMAL":3
					},
					"indices":4,
					"material":0
				},
				{
					"attributes":{
						"POSITION":5,
						"TEXCOORD_0":6,
						"TEXCOORD_1":7,
						"NORMAL":8
					},
					"indices":9,
					"material":1
				},
				{
					"attributes":{
						"POSITION":10,
						"TEXCOORD_0":11,
						"TEXCOORD_1":12,
						"NORMAL":13
					},
					"indices":14,
					"material":2
				},
				{
					"attributes":{
						"POSITION":15,
						"TEXCOORD_0":16,
						"TEXCOORD_1":17,
						"NORMAL":18
					},
					"indices":19,
					"material":3
				},
				{
					"attributes":{
						"POSITION":20,
						"TEXCOORD_0":21,
						"TEXCOORD_1":22,
						"NORMAL":23
					},
					"indices":24,
					"material":4
				},
				{
					"attributes":{
						"POSITION":25,
						"TEXCOORD_0":26,
						"TEXCOORD_1":27,
						"NORMAL":28
					},
					"indices":29,
					"material":5
				},
				{
					"attributes":{
						"POSITION":30,
						"TEXCOORD_0":31,
						"TEXCOORD_1":32,
						"NORMAL":33
					},
					"indices":34,
					"material":6
				},
				{
					"attributes":{
						"POSITION":35,
						"TEXCOORD_0":36,
						"TEXCOORD_1":37,
						"NORMAL":38
					},
					"indices":39,
					"material":7
				},
				{
					"attributes":{
						"POSITION":40,
						"TEXCOORD_0":41,
						"TEXCOORD_1":42,
						"NORMAL":43
					},
					"indices":44,
					"material":8
				},
				{
					"attributes":{
						"POSITION":45,
						"TEXCOORD_0":46,
						"TEXCOORD_1":47,
						"NORMAL":48
					},
					"indices":49,
					"material":9
				},
				{
					"attributes":{
						"POSITION":50,
						"TEXCOORD_0":51,
						"TEXCOORD_1":52,
						"NORMAL":53
					},
					"indices":54,
					"material":10
				},
				{
					"attributes":{
						"POSITION":55,
						"TEXCOORD_0":56,
						"TEXCOORD_1":57,
						"NORMAL":58
					},
					"indices":59,
					"material":11
				}
			]
		}
	],
	"textures":[
		{
			"sampler":0,
			"source":0
		},
		{
			"sampler":0,
			"source":1
		},
		{
			"sampler":0,
			"source":2
		},
		{
			"sampler":0,
			"source":2
		},
		{
			"sampler":0,
			"source":1
		},
		{
			"sampler":0,
			"source":0
		}
	],
	"images":[
		{
			"mimeType":"image/png",
			"name":"Screen Glass Alpha",
			"uri":"Screen%20Glass%20Alpha.png"
		},
		{
			"mimeType":"image/png",
			"name":"CAAMERA_TEXTURE",
			"uri":"CAAMERA_TEXTURE.png"
		},
		{
			"mimeType":"image/png",
			"name":"Screen",
			"uri":"Screen.png"
		}
	],
	"accessors":[
		{
			"bufferView":0,
			"componentType":5126,
			"count":381,
			"max":[
				4.401400566101074,
				10.674793243408203,
				17.187145233154297
			],
			"min":[
				-0.1242825984954834,
				-79.26216125488281,
				-8.418596267700195
			],
			"type":"VEC3"
		},
		{
			"bufferView":1,
			"componentType":5126,
			"count":381,
			"type":"VEC2"
		},
		{
			"bufferView":2,
			"componentType":5126,
			"count":381,
			"type":"VEC2"
		},
		{
			"bufferView":3,
			"componentType":5126,
			"count":381,
			"type":"VEC3"
		},
		{
			"bufferView":4,
			"componentType":5123,
			"count":1086,
			"type":"SCALAR"
		},
		{
			"bufferView":5,
			"componentType":5126,
			"count":4762,
			"max":[
				4.595296859741211,
				12.399787902832031,
				27.93754768371582
			],
			"min":[
				-0.9129217267036438,
				-79.20576477050781,
				-16.055898666381836
			],
			"type":"VEC3"
		},
		{
			"bufferView":6,
			"componentType":5126,
			"count":4762,
			"type":"VEC2"
		},
		{
			"bufferView":7,
			"componentType":5126,
			"count":4762,
			"type":"VEC2"
		},
		{
			"bufferView":8,
			"componentType":5126,
			"count":4762,
			"type":"VEC3"
		},
		{
			"bufferView":9,
			"componentType":5123,
			"count":19572,
			"type":"SCALAR"
		},
		{
			"bufferView":10,
			"componentType":5126,
			"count":7692,
			"max":[
				0.47168636322021484,
				12.393303871154785,
				27.931076049804688
			],
			"min":[
				-0.5017433166503906,
				-79.19927978515625,
				-16.04941177368164
			],
			"type":"VEC3"
		},
		{
			"bufferView":11,
			"componentType":5126,
			"count":7692,
			"type":"VEC2"
		},
		{
			"bufferView":12,
			"componentType":5126,
			"count":7692,
			"type":"VEC2"
		},
		{
			"bufferView":13,
			"componentType":5126,
			"count":7692,
			"type":"VEC3"
		},
		{
			"bufferView":14,
			"componentType":5123,
			"count":38472,
			"type":"SCALAR"
		},
		{
			"bufferView":15,
			"componentType":5126,
			"count":54914,
			"max":[
				4.708446502685547,
				13.093894958496094,
				28.980194091796875
			],
			"min":[
				-0.8881158828735352,
				-79.89987182617188,
				-16.983213424682617
			],
			"type":"VEC3"
		},
		{
			"bufferView":16,
			"componentType":5126,
			"count":54914,
			"type":"VEC2"
		},
		{
			"bufferView":17,
			"componentType":5126,
			"count":54914,
			"type":"VEC2"
		},
		{
			"bufferView":18,
			"componentType":5126,
			"count":54914,
			"type":"VEC3"
		},
		{
			"bufferView":19,
			"componentType":5123,
			"count":279744,
			"type":"SCALAR"
		},
		{
			"bufferView":20,
			"componentType":5126,
			"count":596,
			"max":[
				4.708446502685547,
				13.093360900878906,
				28.63162612915039
			],
			"min":[
				0.07437777519226074,
				-79.89924621582031,
				-16.74997901916504
			],
			"type":"VEC3"
		},
		{
			"bufferView":21,
			"componentType":5126,
			"count":596,
			"type":"VEC2"
		},
		{
			"bufferView":22,
			"componentType":5126,
			"count":596,
			"type":"VEC2"
		},
		{
			"bufferView":23,
			"componentType":5126,
			"count":596,
			"type":"VEC3"
		},
		{
			"bufferView":24,
			"componentType":5123,
			"count":1788,
			"type":"SCALAR"
		},
		{
			"bufferView":25,
			"componentType":5126,
			"count":3583,
			"max":[
				0.4006235599517822,
				8.659247398376465,
				3.183018207550049
			],
			"min":[
				-0.9589555263519287,
				-3.1734490394592285,
				-3.173450469970703
			],
			"type":"VEC3"
		},
		{
			"bufferView":26,
			"componentType":5126,
			"count":3583,
			"type":"VEC2"
		},
		{
			"bufferView":27,
			"componentType":5126,
			"count":3583,
			"type":"VEC2"
		},
		{
			"bufferView":28,
			"componentType":5126,
			"count":3583,
			"type":"VEC3"
		},
		{
			"bufferView":29,
			"componentType":5123,
			"count":19968,
			"type":"SCALAR"
		},
		{
			"bufferView":30,
			"componentType":5126,
			"count":9869,
			"max":[
				4.730194568634033,
				12.393310546875,
				27.931072235107422
			],
			"min":[
				-0.9639185667037964,
				-79.19928741455078,
				-16.049423217773438
			],
			"type":"VEC3"
		},
		{
			"bufferView":31,
			"componentType":5126,
			"count":9869,
			"type":"VEC2"
		},
		{
			"bufferView":32,
			"componentType":5126,
			"count":9869,
			"type":"VEC2"
		},
		{
			"bufferView":33,
			"componentType":5126,
			"count":9869,
			"type":"VEC3"
		},
		{
			"bufferView":34,
			"componentType":5123,
			"count":47844,
			"type":"SCALAR"
		},
		{
			"bufferView":35,
			"componentType":5126,
			"count":4078,
			"max":[
				4.552739143371582,
				10.946208953857422,
				2.349792003631592
			],
			"min":[
				-0.9589555263519287,
				-8.072735786437988,
				-11.665291786193848
			],
			"type":"VEC3"
		},
		{
			"bufferView":36,
			"componentType":5126,
			"count":4078,
			"type":"VEC2"
		},
		{
			"bufferView":37,
			"componentType":5126,
			"count":4078,
			"type":"VEC2"
		},
		{
			"bufferView":38,
			"componentType":5126,
			"count":4078,
			"type":"VEC3"
		},
		{
			"bufferView":39,
			"componentType":5123,
			"count":20112,
			"type":"SCALAR"
		},
		{
			"bufferView":40,
			"componentType":5126,
			"count":771,
			"max":[
				0.02212923765182495,
				5.837022304534912,
				0.9890192151069641
			],
			"min":[
				-0.670011579990387,
				-5.8867998123168945,
				-9.476167678833008
			],
			"type":"VEC3"
		},
		{
			"bufferView":41,
			"componentType":5126,
			"count":771,
			"type":"VEC2"
		},
		{
			"bufferView":42,
			"componentType":5126,
			"count":771,
			"type":"VEC2"
		},
		{
			"bufferView":43,
			"componentType":5126,
			"count":771,
			"type":"VEC3"
		},
		{
			"bufferView":44,
			"componentType":5123,
			"count":4320,
			"type":"SCALAR"
		},
		{
			"bufferView":45,
			"componentType":5126,
			"count":315,
			"max":[
				4.134151458740234,
				11.395790100097656,
				26.969499588012695
			],
			"min":[
				4.134151458740234,
				-78.16706848144531,
				-15.087850570678711
			],
			"type":"VEC3"
		},
		{
			"bufferView":46,
			"componentType":5126,
			"count":315,
			"type":"VEC2"
		},
		{
			"bufferView":47,
			"componentType":5126,
			"count":315,
			"type":"VEC2"
		},
		{
			"bufferView":48,
			"componentType":5126,
			"count":315,
			"type":"VEC3"
		},
		{
			"bufferView":49,
			"componentType":5123,
			"count":948,
			"type":"SCALAR"
		},
		{
			"bufferView":50,
			"componentType":5126,
			"count":257,
			"max":[
				4.577549457550049,
				10.589385986328125,
				1.8427785634994507
			],
			"min":[
				4.330817222595215,
				9.470283508300781,
				0.7236761450767517
			],
			"type":"VEC3"
		},
		{
			"bufferView":51,
			"componentType":5126,
			"count":257,
			"type":"VEC2"
		},
		{
			"bufferView":52,
			"componentType":5126,
			"count":257,
			"type":"VEC2"
		},
		{
			"bufferView":53,
			"componentType":5126,
			"count":257,
			"type":"VEC3"
		},
		{
			"bufferView":54,
			"componentType":5123,
			"count":1440,
			"type":"SCALAR"
		},
		{
			"bufferView":55,
			"componentType":5126,
			"count":4666,
			"max":[
				-0.6623821258544922,
				7.915506362915039,
				3.064974784851074
			],
			"min":[
				-0.9639185667037964,
				-7.964262962341309,
				-11.556818962097168
			],
			"type":"VEC3"
		},
		{
			"bufferView":56,
			"componentType":5126,
			"count":4666,
			"type":"VEC2"
		},
		{
			"bufferView":57,
			"componentType":5126,
			"count":4666,
			"type":"VEC2"
		},
		{
			"bufferView":58,
			"componentType":5126,
			"count":4666,
			"type":"VEC3"
		},
		{
			"bufferView":59,
			"componentType":5123,
			"count":21864,
			"type":"SCALAR"
		}
	],
	"bufferViews":[
		{
			"buffer":0,
			"byteLength":4572,
			"byteOffset":0,
			"target":34962
		},
		{
			"buffer":0,
			"byteLength":3048,
			"byteOffset":4572,
			"target":34962
		},
		{
			"buffer":0,
			"byteLength":3048,
			"byteOffset":7620,
			"target":34962
		},
		{
			"buffer":0,
			"byteLength":4572,
			"byteOffset":10668,
			"target":34962
		},
		{
			"buffer":0,
			"byteLength":2172,
			"byteOffset":15240,
			"target":34963
		},
		{
			"buffer":0,
			"byteLength":57144,
			"byteOffset":17412,
			"target":34962
		},
		{
			"buffer":0,
			"byteLength":38096,
			"byteOffset":74556,
			"target":34962
		},
		{
			"buffer":0,
			"byteLength":38096,
			"byteOffset":112652,
			"target":34962
		},
		{
			"buffer":0,
			"byteLength":57144,
			"byteOffset":150748,
			"target":34962
		},
		{
			"buffer":0,
			"byteLength":39144,
			"byteOffset":207892,
			"target":34963
		},
		{
			"buffer":0,
			"byteLength":92304,
			"byteOffset":247036,
			"target":34962
		},
		{
			"buffer":0,
			"byteLength":61536,
			"byteOffset":339340,
			"target":34962
		},
		{
			"buffer":0,
			"byteLength":61536,
			"byteOffset":400876,
			"target":34962
		},
		{
			"buffer":0,
			"byteLength":92304,
			"byteOffset":462412,
			"target":34962
		},
		{
			"buffer":0,
			"byteLength":76944,
			"byteOffset":554716,
			"target":34963
		},
		{
			"buffer":0,
			"byteLength":658968,
			"byteOffset":631660,
			"target":34962
		},
		{
			"buffer":0,
			"byteLength":439312,
			"byteOffset":1290628,
			"target":34962
		},
		{
			"buffer":0,
			"byteLength":439312,
			"byteOffset":1729940,
			"target":34962
		},
		{
			"buffer":0,
			"byteLength":658968,
			"byteOffset":2169252,
			"target":34962
		},
		{
			"buffer":0,
			"byteLength":559488,
			"byteOffset":2828220,
			"target":34963
		},
		{
			"buffer":0,
			"byteLength":7152,
			"byteOffset":3387708,
			"target":34962
		},
		{
			"buffer":0,
			"byteLength":4768,
			"byteOffset":3394860,
			"target":34962
		},
		{
			"buffer":0,
			"byteLength":4768,
			"byteOffset":3399628,
			"target":34962
		},
		{
			"buffer":0,
			"byteLength":7152,
			"byteOffset":3404396,
			"target":34962
		},
		{
			"buffer":0,
			"byteLength":3576,
			"byteOffset":3411548,
			"target":34963
		},
		{
			"buffer":0,
			"byteLength":42996,
			"byteOffset":3415124,
			"target":34962
		},
		{
			"buffer":0,
			"byteLength":28664,
			"byteOffset":3458120,
			"target":34962
		},
		{
			"buffer":0,
			"byteLength":28664,
			"byteOffset":3486784,
			"target":34962
		},
		{
			"buffer":0,
			"byteLength":42996,
			"byteOffset":3515448,
			"target":34962
		},
		{
			"buffer":0,
			"byteLength":39936,
			"byteOffset":3558444,
			"target":34963
		},
		{
			"buffer":0,
			"byteLength":118428,
			"byteOffset":3598380,
			"target":34962
		},
		{
			"buffer":0,
			"byteLength":78952,
			"byteOffset":3716808,
			"target":34962
		},
		{
			"buffer":0,
			"byteLength":78952,
			"byteOffset":3795760,
			"target":34962
		},
		{
			"buffer":0,
			"byteLength":118428,
			"byteOffset":3874712,
			"target":34962
		},
		{
			"buffer":0,
			"byteLength":95688,
			"byteOffset":3993140,
			"target":34963
		},
		{
			"buffer":0,
			"byteLength":48936,
			"byteOffset":4088828,
			"target":34962
		},
		{
			"buffer":0,
			"byteLength":32624,
			"byteOffset":4137764,
			"target":34962
		},
		{
			"buffer":0,
			"byteLength":32624,
			"byteOffset":4170388,
			"target":34962
		},
		{
			"buffer":0,
			"byteLength":48936,
			"byteOffset":4203012,
			"target":34962
		},
		{
			"buffer":0,
			"byteLength":40224,
			"byteOffset":4251948,
			"target":34963
		},
		{
			"buffer":0,
			"byteLength":9252,
			"byteOffset":4292172,
			"target":34962
		},
		{
			"buffer":0,
			"byteLength":6168,
			"byteOffset":4301424,
			"target":34962
		},
		{
			"buffer":0,
			"byteLength":6168,
			"byteOffset":4307592,
			"target":34962
		},
		{
			"buffer":0,
			"byteLength":9252,
			"byteOffset":4313760,
			"target":34962
		},
		{
			"buffer":0,
			"byteLength":8640,
			"byteOffset":4323012,
			"target":34963
		},
		{
			"buffer":0,
			"byteLength":3780,
			"byteOffset":4331652,
			"target":34962
		},
		{
			"buffer":0,
			"byteLength":2520,
			"byteOffset":4335432,
			"target":34962
		},
		{
			"buffer":0,
			"byteLength":2520,
			"byteOffset":4337952,
			"target":34962
		},
		{
			"buffer":0,
			"byteLength":3780,
			"byteOffset":4340472,
			"target":34962
		},
		{
			"buffer":0,
			"byteLength":1896,
			"byteOffset":4344252,
			"target":34963
		},
		{
			"buffer":0,
			"byteLength":3084,
			"byteOffset":4346148,
			"target":34962
		},
		{
			"buffer":0,
			"byteLength":2056,
			"byteOffset":4349232,
			"target":34962
		},
		{
			"buffer":0,
			"byteLength":2056,
			"byteOffset":4351288,
			"target":34962
		},
		{
			"buffer":0,
			"byteLength":3084,
			"byteOffset":4353344,
			"target":34962
		},
		{
			"buffer":0,
			"byteLength":2880,
			"byteOffset":4356428,
			"target":34963
		},
		{
			"buffer":0,
			"byteLength":55992,
			"byteOffset":4359308,
			"target":34962
		},
		{
			"buffer":0,
			"byteLength":37328,
			"byteOffset":4415300,
			"target":34962
		},
		{
			"buffer":0,
			"byteLength":37328,
			"byteOffset":4452628,
			"target":34962
		},
		{
			"buffer":0,
			"byteLength":55992,
			"byteOffset":4489956,
			"target":34962
		},
		{
			"buffer":0,
			"byteLength":43728,
			"byteOffset":4545948,
			"target":34963
		}
	],
	"samplers":[
		{
			"magFilter":9729,
			"minFilter":9987
		}
	],
	"buffers":[
		{
			"byteLength":4589676,
			"uri":"phone_1.bin"
		}
	]
}
